<svg width="14" height="14" viewBox="0 0 14 14" fill="none" xmlns="http://www.w3.org/2000/svg">
<path d="M6.76199 1.69238C7.11324 1.69238 7.3967 1.97955 7.39214 2.33077L7.31361 8.37945C7.30969 8.6813 7.06387 8.92395 6.76199 8.92395C6.4601 8.92395 6.21428 8.6813 6.21036 8.37945L6.13183 2.33077C6.12727 1.97955 6.41073 1.69238 6.76199 1.69238ZM6.76198 11.8323C6.53039 11.8323 6.33166 11.7455 6.1658 11.5719C5.99993 11.3983 5.91699 11.1904 5.91699 10.948C5.91699 10.7056 5.99993 10.4977 6.1658 10.3241C6.33166 10.1505 6.53039 10.0637 6.76198 10.0637C6.99358 10.0637 7.19231 10.1505 7.35817 10.3241C7.52404 10.4977 7.60698 10.7056 7.60698 10.948C7.60698 11.1085 7.56786 11.2559 7.48962 11.3902C7.41451 11.5244 7.3128 11.6325 7.18448 11.7144C7.0593 11.793 6.91847 11.8323 6.76198 11.8323Z" fill="white"/>
<path d="M12.9918 6.97119C12.9918 3.64612 10.2963 0.950617 6.97119 0.950617C3.64612 0.950617 0.950617 3.64612 0.950617 6.97119C0.950617 10.2963 3.64612 12.9918 6.97119 12.9918V13.9424C3.12111 13.9424 0 10.8213 0 6.97119C0 3.12111 3.12111 0 6.97119 0C10.8213 0 13.9424 3.12111 13.9424 6.97119C13.9424 10.8213 10.8213 13.9424 6.97119 13.9424V12.9918C10.2963 12.9918 12.9918 10.2963 12.9918 6.97119Z" fill="white"/>
</svg>
